<svg width="235" height="227" viewBox="0 0 235 227" fill="none" xmlns="http://www.w3.org/2000/svg">
<g filter="url(#filter0_d_2_12908)">
<path d="M231 173.61H4V173.723H231V173.61Z" fill="#EBEBEB"/>
<path d="M208.255 177.932H166.986V178.045H208.255V177.932Z" fill="#EBEBEB"/>
<path d="M154.374 176.701H143.074V176.815H154.374V176.701Z" fill="#EBEBEB"/>
<path d="M180.202 182.149H162.682V182.263H180.202V182.149Z" fill="#EBEBEB"/>
<path d="M38.0955 181.386H27.8169V181.5H38.0955V181.386Z" fill="#EBEBEB"/>
<path d="M54.344 181.386H42.136V181.5H54.344V181.386Z" fill="#EBEBEB"/>
<path d="M106.218 179.471H84.9526V179.584H106.218V179.471Z" fill="#EBEBEB"/>
<path d="M111.598 153.361H23.9352C23.2485 153.36 22.5903 153.086 22.1051 152.6C21.6199 152.114 21.3474 151.456 21.3474 150.769V27.5396C21.3534 26.8568 21.6285 26.2039 22.1131 25.7228C22.5976 25.2417 23.2524 24.9711 23.9352 24.97H111.598C112.286 24.97 112.945 25.2431 113.431 25.7292C113.917 26.2154 114.19 26.8748 114.19 27.5623V150.769C114.19 151.456 113.917 152.116 113.431 152.602C112.945 153.088 112.286 153.361 111.598 153.361ZM23.9352 25.0608C23.2786 25.062 22.6492 25.3237 22.1853 25.7884C21.7215 26.2532 21.4609 26.883 21.4609 27.5396V150.769C21.4609 151.425 21.7215 152.055 22.1853 152.52C22.6492 152.985 23.2786 153.246 23.9352 153.248H111.598C112.255 153.246 112.885 152.985 113.35 152.52C113.814 152.056 114.076 151.426 114.077 150.769V27.5396C114.076 26.8826 113.814 26.2527 113.35 25.7881C112.885 25.3235 112.255 25.062 111.598 25.0608H23.9352Z" fill="#EBEBEB"/>
<path d="M209.803 153.361H122.135C121.448 153.36 120.789 153.086 120.304 152.601C119.818 152.115 119.544 151.456 119.543 150.769V27.5396C119.55 26.8564 119.826 26.2035 120.312 25.7225C120.797 25.2415 121.452 24.9711 122.135 24.97H209.803C210.485 24.9723 211.138 25.2434 211.622 25.7244C212.105 26.2054 212.38 26.8576 212.386 27.5396V150.769C212.386 151.455 212.114 152.113 211.63 152.599C211.146 153.085 210.489 153.359 209.803 153.361ZM122.135 25.0608C121.478 25.062 120.848 25.3235 120.384 25.7881C119.919 26.2527 119.658 26.8826 119.656 27.5396V150.769C119.658 151.426 119.919 152.056 120.384 152.52C120.848 152.985 121.478 153.246 122.135 153.248H209.803C210.46 153.246 211.09 152.985 211.554 152.52C212.019 152.056 212.28 151.426 212.282 150.769V27.5396C212.28 26.8826 212.019 26.2527 211.554 25.7881C211.09 25.3235 210.46 25.062 209.803 25.0608H122.135Z" fill="#EBEBEB"/>
<path d="M27.8123 173.605H82.0925L82.0925 53.5629H27.8123L27.8123 173.605Z" fill="#F0F0F0"/>
<path d="M27.8169 173.605H79.5229L79.5229 53.5629H27.8169L27.8169 173.605Z" fill="#F5F5F5"/>
<path d="M76.7988 170.886V56.2915H30.5408L30.5408 170.886H76.7988Z" fill="#F0F0F0"/>
<path d="M45.4865 110.322H36.0569C35.7358 110.321 35.4282 110.193 35.2011 109.966C34.974 109.739 34.8459 109.431 34.8447 109.11C34.8459 108.789 34.974 108.481 35.2011 108.254C35.4282 108.027 35.7358 107.899 36.0569 107.898H45.4865C45.8076 107.899 46.1152 108.027 46.3423 108.254C46.5694 108.481 46.6975 108.789 46.6987 109.11C46.6975 109.431 46.5694 109.739 46.3423 109.966C46.1152 110.193 45.8076 110.321 45.4865 110.322Z" fill="white"/>
<path d="M31.249 170.886L31.249 56.2915H30.5408L30.5408 170.886H31.249Z" fill="#F0F0F0"/>
<path d="M107.526 171.331H115.607V136.282H107.526V171.331Z" fill="#F0F0F0"/>
<path d="M74.2021 173.555H114.054V171.335H74.2021V173.555Z" fill="#F0F0F0"/>
<path d="M107.526 136.286H72.6494V171.335H107.526V136.286Z" fill="#F5F5F5"/>
<path d="M104.343 140.599H75.8228V152.094H104.343V140.599Z" fill="#F0F0F0"/>
<path d="M104.343 155.522H75.8228V167.018H104.343V155.522Z" fill="#F0F0F0"/>
<path d="M86.8823 141.566H93.2883C93.4962 141.565 93.6953 141.482 93.8423 141.335C93.9894 141.188 94.0725 140.989 94.0737 140.781C94.0737 140.572 93.9911 140.372 93.8439 140.224C93.6968 140.076 93.497 139.992 93.2883 139.991H86.8823C86.6736 139.992 86.4739 140.076 86.3267 140.224C86.1795 140.372 86.0969 140.572 86.0969 140.781C86.0981 140.989 86.1812 141.188 86.3283 141.335C86.4753 141.482 86.6744 141.565 86.8823 141.566Z" fill="#F5F5F5"/>
<path d="M86.8823 156.494H93.2883C93.4939 156.493 93.691 156.411 93.8376 156.267C93.9843 156.123 94.069 155.927 94.0737 155.722C94.0725 155.514 93.9894 155.315 93.8423 155.168C93.6953 155.021 93.4962 154.938 93.2883 154.937H86.8823C86.6744 154.938 86.4753 155.021 86.3283 155.168C86.1812 155.315 86.0981 155.514 86.0969 155.722C86.1016 155.927 86.1863 156.123 86.333 156.267C86.4797 156.411 86.6767 156.493 86.8823 156.494Z" fill="#F5F5F5"/>
<path d="M92.7433 135.596C92.5848 135.595 92.433 135.532 92.3209 135.419C92.2088 135.307 92.1452 135.156 92.144 134.997V116.787C92.144 116.628 92.2072 116.476 92.3196 116.363C92.432 116.251 92.5844 116.188 92.7433 116.188C92.9019 116.189 93.0536 116.252 93.1658 116.365C93.2779 116.477 93.3414 116.628 93.3426 116.787V134.997C93.3414 135.156 93.2779 135.307 93.1658 135.419C93.0536 135.532 92.9019 135.595 92.7433 135.596Z" fill="#F5F5F5"/>
<path d="M98.3503 134.888H87.1365V136.3H98.3503V134.888Z" fill="#F0F0F0"/>
<path d="M95.8487 124.7C95.77 124.7 95.6945 124.669 95.6384 124.614C95.5824 124.559 95.5503 124.484 95.5491 124.405V115.316C95.5502 115.237 95.5822 115.161 95.6381 115.105C95.6941 115.049 95.7696 115.018 95.8487 115.016C95.9278 115.018 96.0034 115.049 96.0593 115.105C96.1152 115.161 96.1472 115.237 96.1484 115.316V124.396C96.149 124.436 96.1416 124.475 96.1269 124.512C96.1121 124.549 96.0901 124.583 96.0622 124.611C96.0343 124.639 96.0011 124.662 95.9644 124.677C95.9278 124.692 95.8884 124.7 95.8487 124.7Z" fill="#F0F0F0"/>
<path d="M84.022 118.449C84.022 118.449 84.2444 109.868 92.7433 109.868C101.242 109.868 101.46 118.439 101.46 118.439L84.022 118.449Z" fill="#F0F0F0"/>
<path d="M157.593 130.57C157.833 130.57 158.079 130.57 158.324 130.593C160.835 130.774 163.196 131.857 164.972 133.642C166.748 135.426 167.82 137.792 167.989 140.304C168.061 141.445 167.948 142.591 167.653 143.695C166.515 148.127 165.966 152.69 166.019 157.266V170.586C166.02 170.817 165.974 171.045 165.886 171.258C165.798 171.471 165.669 171.665 165.505 171.828C165.342 171.991 165.148 172.12 164.935 172.207C164.721 172.295 164.493 172.34 164.262 172.338H121.981V130.57H157.593Z" fill="#F0F0F0"/>
<path d="M111.562 140.99C111.566 139.509 111.887 138.046 112.501 136.698C113.116 135.351 114.011 134.15 115.127 133.176C116.242 132.202 117.553 131.477 118.971 131.05C120.389 130.622 121.882 130.502 123.35 130.697C124.818 130.893 126.228 131.399 127.485 132.182C128.742 132.965 129.817 134.008 130.639 135.24C131.461 136.472 132.011 137.865 132.252 139.326C132.493 140.787 132.42 142.283 132.037 143.714C130.903 148.146 130.355 152.709 130.407 157.284V170.604C130.407 170.834 130.362 171.062 130.274 171.274C130.186 171.486 130.057 171.679 129.894 171.842C129.731 172.004 129.538 172.133 129.325 172.22C129.113 172.308 128.885 172.353 128.655 172.352H115.303C115.073 172.352 114.846 172.307 114.634 172.219C114.422 172.131 114.229 172.002 114.067 171.84C113.904 171.678 113.776 171.485 113.688 171.273C113.6 171.061 113.555 170.834 113.555 170.604V156.485C113.593 152.194 113.05 147.918 111.939 143.773C111.688 142.866 111.561 141.93 111.562 140.99Z" fill="#F5F5F5"/>
<path d="M136.336 172.338H174.295V146.978H136.336V172.338Z" fill="#F0F0F0"/>
<path d="M205.667 152.717H154.86V113.822C154.86 111.732 155.69 109.727 157.168 108.249C158.646 106.771 160.651 105.941 162.741 105.941H197.785C199.876 105.941 201.88 106.771 203.358 108.249C204.836 109.727 205.667 111.732 205.667 113.822V152.717Z" fill="#E0E0E0"/>
<path d="M195.738 152.717H144.931V113.441C144.931 111.451 145.721 109.542 147.129 108.134C148.536 106.727 150.445 105.936 152.435 105.936H188.215C190.205 105.936 192.114 106.727 193.522 108.134C194.929 109.542 195.72 111.451 195.72 113.441V152.717H195.738Z" fill="#F5F5F5"/>
<path d="M171.817 154.991H136.827C136.225 154.991 135.647 154.752 135.222 154.326C134.796 153.9 134.557 153.323 134.557 152.721V146.969C134.557 146.367 134.796 145.789 135.222 145.364C135.647 144.938 136.225 144.699 136.827 144.699H171.817C171.998 144.699 172.173 144.771 172.301 144.9C172.43 145.028 172.502 145.202 172.502 145.384V154.31C172.501 154.491 172.428 154.664 172.3 154.792C172.171 154.919 171.998 154.991 171.817 154.991Z" fill="#E0E0E0"/>
<path d="M209.412 130.57C209.653 130.57 209.893 130.57 210.143 130.593C212.653 130.776 215.013 131.859 216.789 133.643C218.564 135.427 219.635 137.793 219.804 140.304C219.88 141.445 219.767 142.591 219.468 143.695C218.33 148.129 217.78 152.693 217.834 157.27V170.59C217.834 170.82 217.789 171.048 217.7 171.26C217.612 171.473 217.483 171.666 217.32 171.828C217.158 171.99 216.964 172.119 216.752 172.207C216.539 172.294 216.311 172.339 216.081 172.338H173.796V130.57H209.412Z" fill="#F0F0F0"/>
<path d="M163.381 140.99C163.363 138.274 164.406 135.659 166.288 133.702C168.169 131.744 170.741 130.599 173.455 130.51C176.169 130.421 178.81 131.396 180.816 133.226C182.822 135.057 184.033 137.598 184.193 140.309C184.264 141.45 184.151 142.595 183.857 143.7C182.719 148.132 182.169 152.695 182.222 157.27V170.59C182.222 171.054 182.038 171.499 181.71 171.826C181.383 172.154 180.938 172.338 180.474 172.338H167.118C166.888 172.338 166.661 172.293 166.449 172.205C166.237 172.117 166.044 171.989 165.882 171.826C165.719 171.664 165.591 171.471 165.503 171.259C165.415 171.047 165.37 170.82 165.37 170.59V156.485C165.408 152.194 164.866 147.918 163.758 143.773C163.508 142.866 163.381 141.93 163.381 140.99Z" fill="#F5F5F5"/>
<path d="M122.721 173.61H208.668C208.834 173.61 209 173.577 209.154 173.513C209.308 173.449 209.447 173.355 209.565 173.237C209.683 173.119 209.776 172.979 209.839 172.824C209.903 172.67 209.935 172.505 209.934 172.338H121.454C121.454 172.505 121.486 172.67 121.549 172.824C121.613 172.979 121.706 173.119 121.824 173.237C121.941 173.355 122.081 173.449 122.235 173.513C122.389 173.577 122.554 173.61 122.721 173.61Z" fill="#E0E0E0"/>
<path d="M173.624 76.2129H201.268V46.0628H173.624V76.2129Z" fill="#E0E0E0"/>
<path d="M171.976 76.2129H200.337V46.0628H171.976V76.2129Z" fill="#F5F5F5"/>
<path d="M197.958 73.8386V48.4373H174.345V73.8386H197.958Z" fill="white"/>
<path d="M186.154 54.7161L192.61 65.9026H179.698L186.154 54.7161Z" fill="#F5F5F5"/>
<path d="M134.843 93.8145H162.487V63.6643H134.843V93.8145Z" fill="#E0E0E0"/>
<path d="M133.195 93.8145H161.556V63.6643H133.195V93.8145Z" fill="#F5F5F5"/>
<path d="M159.177 91.4401V66.0388H135.565V91.4401H159.177Z" fill="white"/>
<path d="M144.486 83.2682L141.685 78.4149C141.393 77.9083 141.24 77.334 141.241 76.7496C141.241 76.1652 141.396 75.5912 141.688 75.0853C141.981 74.5793 142.401 74.1592 142.907 73.8671C143.414 73.575 143.988 73.4211 144.572 73.4209H150.188C150.772 73.4217 151.346 73.5758 151.852 73.868C152.358 74.1601 152.778 74.58 153.071 75.0856C153.364 75.5912 153.519 76.1648 153.52 76.7491C153.522 77.3333 153.37 77.9078 153.08 78.4149L150.279 83.2682C149.987 83.7786 149.565 84.2028 149.057 84.4978C148.548 84.7928 147.97 84.9482 147.382 84.9482C146.794 84.9482 146.217 84.7928 145.708 84.4978C145.199 84.2028 144.778 83.7786 144.486 83.2682Z" fill="#F5F5F5"/>
<path d="M147.691 45.082H43.0349L49.9221 187.611H154.578L147.691 45.082Z" fill="#D7D7D7"/>
<path opacity="0.2" d="M147.691 45.082H43.0349L49.9221 187.611H154.578L147.691 45.082Z" fill="black"/>
<path d="M148.658 45.082H44.002L50.8937 187.611H155.55L148.658 45.082Z" fill="#D7D7D7"/>
<path opacity="0.2" d="M143.133 49.8765H48.7871L55.3792 181.169L137.417 181.06L151.051 168.974L143.133 49.8765Z" fill="black"/>
<path d="M143.855 49.8718C144.861 89.1911 148.036 128.425 153.366 167.394C145.89 172.54 138.452 177.685 131.052 182.83H60.4912C53.8312 138.797 49.9223 94.3914 48.7871 49.8718H143.855Z" fill="white"/>
<path d="M153.366 167.394C145.89 172.54 138.452 177.685 131.052 182.83C132.668 176.02 134.352 169.21 136.105 162.4L153.366 167.394Z" fill="#EBEBEB"/>
<path d="M74.37 61.8847C74.5486 66.691 74.7575 71.5004 74.9966 76.3128H60.573C60.3309 71.5004 60.122 66.691 59.9465 61.8847H74.37ZM75.841 60.3638H58.3711C58.5739 66.1841 58.8266 72.0074 59.1293 77.8337H76.6037C76.3011 72.0104 76.0483 66.1871 75.8455 60.3638H75.841Z" fill="#D7D7D7"/>
<path d="M133.308 67.301H83.904C83.8586 66.2159 83.8177 65.1263 83.7769 64.0413H133.177C133.217 65.1263 133.263 66.2159 133.308 67.301Z" fill="#E0E0E0"/>
<path d="M122.871 74.1562H84.2082C84.1582 73.0666 84.1037 71.9815 84.0583 70.8965H122.716C122.768 71.9831 122.819 73.0696 122.871 74.1562Z" fill="#E0E0E0"/>
<path d="M75.7865 90.1418C76.0892 94.9542 76.4267 99.7666 76.799 104.579H62.3709C61.9986 99.7666 61.6611 94.9542 61.3584 90.1418H75.7865ZM77.2121 88.6208H59.7422C60.0993 94.4472 60.5064 100.274 60.9634 106.1H78.4561C78.0021 100.277 77.5935 94.4502 77.2303 88.6208H77.2121Z" fill="#D7D7D7"/>
<path d="M103.608 95.5623H85.4477C85.375 94.4728 85.2978 93.3877 85.2297 92.2981H103.39C103.458 93.3877 103.53 94.4728 103.608 95.5623Z" fill="#E0E0E0"/>
<path d="M120.801 95.5623H107.448C107.376 94.4728 107.299 93.3877 107.23 92.2981H120.583C120.651 93.3877 120.723 94.4728 120.801 95.5623Z" fill="#E0E0E0"/>
<path d="M129.181 102.422H85.9469C85.8652 101.333 85.788 100.248 85.7063 99.1582H128.941C129.022 100.248 129.1 101.333 129.181 102.422Z" fill="#E0E0E0"/>
<path d="M77.9519 118.412C78.3847 123.225 78.8508 128.037 79.3502 132.849H64.9221C64.4227 128.037 63.9566 123.225 63.5238 118.412H77.9519ZM79.3412 116.891H61.8667C62.3812 122.721 62.9442 128.549 63.5556 134.375H81.03C80.4247 128.546 79.8618 122.718 79.3412 116.891Z" fill="#D7D7D7"/>
<path d="M137.521 127.433H88.1125L88.4394 130.693H137.848L137.521 127.433Z" fill="#E0E0E0"/>
<path d="M126.126 120.573H87.4634C87.5633 121.658 87.6631 122.748 87.7676 123.833H126.426C126.326 122.748 126.221 121.672 126.126 120.573Z" fill="#E0E0E0"/>
<path d="M80.8712 146.683C81.4342 151.495 82.0289 156.306 82.6554 161.115H68.2273C67.6008 156.309 67.006 151.498 66.4431 146.683H80.8712ZM82.2332 145.162H64.7451C65.411 150.991 66.1298 156.816 66.9016 162.636H84.3579C83.5922 156.816 82.8733 150.991 82.2014 145.162H82.2332Z" fill="#D7D7D7"/>
<path d="M140.241 152.09H90.8321C90.7004 151 90.5688 149.915 90.4417 148.826H139.846C139.978 149.929 140.105 151.014 140.241 152.09Z" fill="#E0E0E0"/>
<path d="M114.181 158.959H91.69C91.5493 157.874 91.4131 156.784 91.2769 155.699H113.768C113.904 156.784 114.04 157.874 114.181 158.959Z" fill="#E0E0E0"/>
<path d="M127.611 158.959H117.899C117.759 157.874 117.623 156.784 117.486 155.699H127.197C127.334 156.784 127.488 157.874 127.611 158.959Z" fill="#E0E0E0"/>
<path d="M68.0139 74.2516L67.3738 73.2346C65.9755 71.01 63.1243 69.026 62.1392 68.4449L62.8746 67.1419C64.8075 68.3157 66.5344 69.7988 67.9867 71.5321C70.184 68.5403 73.4347 65.4485 77.8839 62.1252L78.8237 63.351C74.0748 66.9059 70.7515 70.161 68.6541 73.2936L68.0139 74.2516Z" fill="#D7D7D7"/>
<path d="M69.7392 102.518L69.0718 101.501C67.619 99.2762 64.7134 97.2877 63.7146 96.7065L64.4092 95.4036C66.3789 96.5777 68.1464 98.0616 69.6438 99.7983C71.7595 96.8019 74.9239 93.7101 79.2868 90.3823C79.6091 90.7909 79.936 91.1995 80.2584 91.6127C75.6049 95.172 72.3678 98.4227 70.3566 101.56C70.1478 101.878 69.9435 102.2 69.7392 102.518Z" fill="#D7D7D7"/>
<path d="M72.2453 130.861L71.5506 129.844C70.0343 127.619 67.0742 125.631 66.0618 125.054C66.2797 124.6 66.5158 124.183 66.7246 123.751C68.725 124.927 70.5294 126.409 72.0727 128.142C74.1112 125.145 77.1938 122.058 81.4614 118.726L82.4693 119.956C77.9293 123.515 74.7513 126.766 72.8309 129.903L72.2453 130.861Z" fill="#D7D7D7"/>
<path d="M118.013 174.999C115.334 174.999 113.791 174.009 112.429 173.137C111.067 172.266 109.895 171.512 107.635 171.512C105.374 171.512 104.366 172.302 103.299 173.137C102.232 173.973 100.924 174.999 98.2458 174.999C95.5672 174.999 94.0237 174.009 92.6662 173.137C91.3087 172.266 90.1374 171.512 87.872 171.512C85.6065 171.512 84.6032 172.302 83.5363 173.137C82.4694 173.973 81.1618 174.999 78.4878 174.999C75.8137 174.999 74.2656 174.009 72.9036 173.137C71.5416 172.266 70.3748 171.512 68.1093 171.512C68.0503 171.058 67.9868 170.64 67.9277 170.205C70.6063 170.205 72.1454 171.194 73.5074 172.066C74.8694 172.938 76.0362 173.691 78.2971 173.691C80.558 173.691 81.5659 172.901 82.6328 172.066C83.6997 171.231 85.0118 170.205 87.6904 170.205C90.3689 170.205 91.9035 171.194 93.2655 172.066C94.6275 172.938 95.7988 173.691 98.0597 173.691C100.321 173.691 101.329 172.901 102.395 172.066C103.462 171.231 104.774 170.205 107.453 170.205C110.132 170.205 111.671 171.194 113.033 172.066C114.395 172.938 115.561 173.691 117.827 173.691C117.886 174.127 117.954 174.563 118.013 174.999Z" fill="#EBEBEB"/>
<path d="M121.854 48.6097C120.319 44.5237 116.773 41.8406 112.96 41.8406H105.187C104.609 41.8355 104.044 41.6608 103.564 41.338C103.084 41.0151 102.709 40.5585 102.486 40.0246C101.937 38.7197 101.018 37.6038 99.8426 36.8142C98.6674 36.0245 97.2871 35.5955 95.8713 35.5799C94.5017 35.566 93.1635 35.9896 92.0513 36.789C90.9391 37.5885 90.1111 38.722 89.6878 40.0246C89.5154 40.5576 89.1769 41.0213 88.7219 41.3481C88.2668 41.6749 87.7192 41.8474 87.1591 41.8406H79.3911C75.573 41.8406 72.286 44.5373 71.151 48.6097L70.697 50.2305H122.453L121.854 48.6097Z" fill="#8687E7"/>
<path d="M122.131 51.8286H71.1919C70.7623 51.8236 70.3505 51.6559 70.0396 51.3594C69.7288 51.0628 69.5419 50.6594 69.5166 50.2305C69.5055 50.0245 69.5366 49.8183 69.6081 49.6247C69.6797 49.4312 69.7901 49.2543 69.9326 49.105C70.0751 48.9557 70.2466 48.8372 70.4366 48.7567C70.6267 48.6762 70.8312 48.6355 71.0375 48.637H121.976C122.405 48.6419 122.816 48.809 123.127 49.1046C123.438 49.4002 123.625 49.8025 123.652 50.2305C123.663 50.437 123.633 50.6437 123.561 50.8378C123.49 51.0319 123.38 51.2093 123.237 51.3591C123.095 51.5089 122.923 51.6278 122.733 51.7086C122.542 51.7894 122.337 51.8302 122.131 51.8286Z" fill="#BCBDFF"/>
<path opacity="0.2" d="M122.131 51.8286H71.1919C70.7623 51.8236 70.3505 51.6559 70.0396 51.3594C69.7288 51.0628 69.5419 50.6594 69.5166 50.2305C69.5055 50.0245 69.5366 49.8183 69.6081 49.6247C69.6797 49.4312 69.7901 49.2543 69.9326 49.105C70.0751 48.9557 70.2466 48.8372 70.4366 48.7567C70.6267 48.6762 70.8312 48.6355 71.0375 48.637H121.976C122.405 48.6419 122.816 48.809 123.127 49.1046C123.438 49.4002 123.625 49.8025 123.652 50.2305C123.663 50.437 123.633 50.6437 123.561 50.8378C123.49 51.0319 123.38 51.2093 123.237 51.3591C123.095 51.5089 122.923 51.6278 122.733 51.7086C122.542 51.7894 122.337 51.8302 122.131 51.8286Z" fill="black"/>
<path d="M167.858 186.244H164.53L164.198 178.54H167.526L167.858 186.244Z" fill="#FFC3BD"/>
<path d="M187.829 186.244H184.502L182.831 178.54H186.154L187.829 186.244Z" fill="#FFC3BD"/>
<path d="M184.265 185.859H188.002C188.068 185.858 188.132 185.881 188.183 185.922C188.234 185.963 188.27 186.021 188.283 186.086L188.941 189.046C188.956 189.118 188.955 189.192 188.937 189.263C188.92 189.334 188.887 189.401 188.84 189.457C188.793 189.514 188.735 189.559 188.668 189.59C188.602 189.621 188.529 189.637 188.456 189.636C187.153 189.613 186.517 189.536 184.874 189.536C183.861 189.536 181.777 189.64 180.384 189.64C178.99 189.64 178.804 188.278 179.376 188.138C181.941 187.575 182.903 186.803 183.725 186.063C183.874 185.931 184.066 185.859 184.265 185.859Z" fill="#263238"/>
<path d="M164.553 185.859H168.185C168.251 185.858 168.315 185.881 168.366 185.922C168.417 185.963 168.453 186.021 168.466 186.086L169.125 189.046C169.141 189.115 169.141 189.187 169.126 189.257C169.111 189.326 169.081 189.392 169.037 189.448C168.994 189.505 168.938 189.551 168.875 189.583C168.812 189.616 168.742 189.634 168.671 189.636C167.358 189.613 165.465 189.536 163.817 189.536C161.892 189.536 160.231 189.64 157.97 189.64C156.608 189.64 156.226 188.278 156.798 188.138C159.4 187.566 161.525 187.507 163.772 186.117C164.004 185.963 164.274 185.874 164.553 185.859Z" fill="#263238"/>
<path d="M171.072 64.8857C170.618 67.3192 170.355 70.3337 172.057 71.9591C172.057 71.9591 171.081 74.4288 166.559 74.4288C162.428 74.4288 164.498 71.9591 164.498 71.9591C167.222 71.3098 167.068 67.9548 166.596 66.0571L171.072 64.8857Z" fill="#FFC3BD"/>
<path d="M163.2 72.2995C163.291 71.6957 164.353 70.992 165.56 70.7287C166.768 70.4653 171.408 69.8797 172.825 70.4653C174.241 71.051 172.579 72.7853 172.579 72.7853L163.2 72.2995Z" fill="#D7D7D7"/>
<path opacity="0.4" d="M163.2 72.2995C163.291 71.6957 164.353 70.992 165.56 70.7287C166.768 70.4653 171.408 69.8797 172.825 70.4653C174.241 71.051 172.579 72.7853 172.579 72.7853L163.2 72.2995Z" fill="white"/>
<path opacity="0.2" d="M164.198 178.545L164.371 182.513H167.699L167.526 178.545H164.198Z" fill="black"/>
<path opacity="0.2" d="M186.159 178.545H182.831L183.693 182.513H187.021L186.159 178.545Z" fill="black"/>
<path d="M178.949 74.9556L174.94 77.6342C174.94 77.6342 180.697 87.8719 180.216 89.5108C179.557 91.7445 178.64 96.625 177.392 99.1038C177.555 99.6395 178.386 100.861 178.849 101.07C182.027 98.6544 185.237 91.0816 185.119 88.9615C184.842 84.1536 178.949 74.9556 178.949 74.9556Z" fill="#FFC3BD"/>
<path d="M177.392 99.1128L174.214 98.8677L175.88 102.368C175.88 102.368 178.654 102.491 179.117 100.37L177.392 99.1128Z" fill="#B55B52"/>
<path d="M193.1 116.183L192.832 116.687L191.035 120.088L127.211 86.3419L129.272 82.4375L193.1 116.183Z" fill="#D7D7D7"/>
<path d="M197.227 108.388L195.911 110.876L195.166 112.283L131.338 78.5375L133.399 74.6331L197.227 108.388Z" fill="#D7D7D7"/>
<path d="M131.359 78.5262L129.293 82.4258L193.095 116.221L195.161 112.322L131.359 78.5262Z" fill="#D7D7D7"/>
<path opacity="0.2" d="M131.359 78.5262L129.293 82.4258L193.095 116.221L195.161 112.322L131.359 78.5262Z" fill="black"/>
<path d="M124.46 75.1507L122.603 78.6647L127.211 86.3418L133.399 74.6377L124.46 75.1507Z" fill="#D7D7D7"/>
<path opacity="0.8" d="M124.46 75.1507L122.603 78.6647L127.211 86.3418L133.399 74.6377L124.46 75.1507Z" fill="white"/>
<path d="M120.628 75.3731L122.603 78.6646L124.46 75.1506L120.628 75.3731Z" fill="#D7D7D7"/>
<path d="M171.658 100.461L173.319 103.557L175.894 102.368L174.227 98.8677L171.658 100.461Z" fill="#B55B52"/>
<path d="M177.996 72.7128C181.142 73.1668 184.747 84.0628 184.747 84.0628L178.136 87.7946C178.136 87.7946 175.226 82.6281 173.796 78.7691C172.289 74.7331 174.622 72.2225 177.996 72.7128Z" fill="#8687E7"/>
<path opacity="0.2" d="M176.166 76.4492C174.736 75.1417 175.612 80.7395 176.293 84.3215C176.643 85.0207 176.974 85.6563 177.256 86.1875C178.849 83.3727 178.136 78.2516 176.166 76.4492Z" fill="black"/>
<path d="M159.363 72.8853C159.363 72.8853 155.436 82.9278 159.164 101.633H176.974C177.097 98.9086 175.381 85.5791 178.014 72.7128C176.047 72.333 174.057 72.0812 172.057 71.9591C169.54 71.8138 167.016 71.8138 164.498 71.9591C162.765 72.1324 161.048 72.4421 159.363 72.8853Z" fill="#8687E7"/>
<path d="M162.101 77.5525L157.615 75.7773C157.615 75.7773 152.449 86.3238 150.805 86.8549C148.595 87.5813 144.055 89.5789 141.303 89.9694C140.958 90.4234 140.423 91.7854 140.509 92.2848C144.3 93.5242 152.367 91.8807 154.038 90.5823C157.87 87.6222 162.101 77.5525 162.101 77.5525Z" fill="#FFC3BD"/>
<path opacity="0.2" d="M162.605 76.3539C161.865 74.6469 160.448 73.9341 158.973 74.1838C158.401 76.2767 157.434 80.8757 157.611 87.8038L158.669 88.3123C158.669 88.3123 163.872 79.2731 162.605 76.3539Z" fill="black"/>
<path d="M163.313 75.1597C164.43 78.138 158.773 86.9002 158.773 86.9002L152.118 83.2682C153.118 80.5429 154.407 77.9326 155.963 75.4821C158.301 71.9908 162.083 71.8955 163.313 75.1597Z" fill="#8687E7"/>
<path d="M141.467 89.9602L137.508 90.8001L139.514 94.4639C140.621 93.9134 141.626 93.1797 142.488 92.2938L141.467 89.9602Z" fill="#FFC3BD"/>
<path d="M135.637 91.631L137.217 93.8193L139.515 94.4821L137.508 90.8184L135.637 91.631Z" fill="#FFC3BD"/>
<path d="M163.527 61.3855C163.527 61.6534 163.359 61.8395 163.182 61.8395C163.004 61.8395 162.877 61.6035 162.896 61.3356C162.914 61.0677 163.064 60.8816 163.241 60.8816C163.418 60.8816 163.545 61.1177 163.527 61.3855Z" fill="#263238"/>
<path d="M163.763 61.4082C163.396 62.2081 162.921 62.9536 162.351 63.6237C162.526 63.7655 162.73 63.8671 162.949 63.9212C163.168 63.9754 163.396 63.9807 163.617 63.937L163.763 61.4082Z" fill="#ED847E"/>
<path d="M163.186 60.4592C163.162 60.4541 163.139 60.4449 163.118 60.432C163.1 60.4209 163.085 60.4064 163.073 60.3894C163.061 60.3723 163.053 60.353 163.049 60.3327C163.045 60.3123 163.045 60.2913 163.049 60.2709C163.053 60.2506 163.061 60.2312 163.073 60.214C163.204 60.0014 163.384 59.8231 163.598 59.6937C163.812 59.5642 164.054 59.4874 164.303 59.4695C164.344 59.4717 164.384 59.4891 164.413 59.5184C164.442 59.5478 164.46 59.5869 164.462 59.6284C164.462 59.6705 164.445 59.7109 164.415 59.7407C164.386 59.7705 164.345 59.7873 164.303 59.7873C164.109 59.8053 163.923 59.8685 163.758 59.9718C163.593 60.0751 163.455 60.2156 163.354 60.382C163.338 60.4108 163.313 60.4337 163.282 60.4476C163.252 60.4614 163.219 60.4655 163.186 60.4592Z" fill="#263238"/>
<path d="M172.552 61.1538C172.162 64.4317 172.098 66.3658 170.341 67.9638C167.694 70.361 163.722 68.6221 163.122 65.2898C162.587 62.2934 163.318 57.4401 166.614 56.3142C167.339 56.0633 168.116 56.0018 168.872 56.1357C169.628 56.2696 170.337 56.5944 170.931 57.0792C171.526 57.564 171.988 58.1929 172.271 58.906C172.555 59.6191 172.651 60.3929 172.552 61.1538Z" fill="#FFC3BD"/>
<path d="M165.947 61.794C164.798 62.021 162.964 59.4696 164.462 57.304C163.704 56.9272 161.229 58.4163 160.299 57.027C159.368 55.6378 161.951 54.8978 161.456 53.7219C163.209 54.0806 160.321 56.2689 161.988 56.0555C163.654 55.8421 165.574 52.764 167.436 54.0261C170.727 56.2371 175.213 52.5506 173.383 57.1678C175.626 56.7138 177.16 59.3651 175.022 61.2038C170.759 64.8585 173.383 65.3398 170.682 65.5259C169.329 65.6258 166.183 64.0141 165.947 61.794Z" fill="#263238"/>
<path d="M167.649 62.6522C167.492 62.9799 167.271 63.2728 166.999 63.5137C166.726 63.7547 166.409 63.9387 166.065 64.055C165.157 64.3683 164.634 63.5556 164.848 62.6612C165.039 61.8531 165.756 60.7181 166.696 60.7998C166.902 60.82 167.1 60.8915 167.271 61.0079C167.443 61.1243 167.582 61.2819 167.677 61.4662C167.772 61.6504 167.819 61.8556 167.814 62.0627C167.809 62.2699 167.752 62.4726 167.649 62.6522Z" fill="#FFC3BD"/>
<path d="M165.474 101.633C165.474 101.633 169.252 127.057 171.322 136.591C173.592 147.033 182.141 181.759 182.141 181.759H188.233C188.233 181.759 182.599 147.863 181.301 137.535C179.898 126.33 176.956 101.646 176.956 101.646L165.474 101.633Z" fill="#D7D7D7"/>
<path opacity="0.2" d="M165.474 101.633C165.474 101.633 169.252 127.057 171.322 136.591C173.592 147.033 182.141 181.759 182.141 181.759H188.233C188.233 181.759 182.599 147.863 181.301 137.535C179.898 126.33 176.956 101.646 176.956 101.646L165.474 101.633Z" fill="white"/>
<path opacity="0.2" d="M169.96 110.522C169.678 110.122 169.424 109.986 169.188 110.068H169.138C169.084 110.091 169.034 110.122 168.988 110.159C168.94 110.198 168.896 110.242 168.857 110.29L168.784 110.381L168.689 110.531C168.61 110.663 168.541 110.801 168.484 110.944C168.448 111.03 168.412 111.121 168.38 111.212C168.348 111.303 168.298 111.443 168.262 111.571C168.226 111.698 168.157 111.916 168.107 112.102C168.107 112.152 168.085 112.197 168.071 112.247C168.058 112.297 168.021 112.456 167.999 112.56C167.976 112.665 167.958 112.742 167.94 112.833C167.899 113.01 167.862 113.196 167.826 113.387C167.79 113.577 167.749 113.8 167.713 114.013C167.713 114.086 167.69 114.158 167.676 114.236C167.631 114.508 167.59 114.785 167.549 115.071C168.557 121.4 169.755 128.655 170.727 133.717C170.772 133.553 170.822 133.381 170.863 133.195C171.062 132.35 171.213 131.495 171.317 130.634C172.175 124.11 171.78 113.123 169.96 110.522Z" fill="black"/>
<path d="M159.164 101.633C159.164 101.633 158.71 126.503 159.068 136.65C159.445 147.201 163.132 181.745 163.132 181.745H168.766C168.766 181.745 168.97 147.813 169.22 137.453C169.492 126.158 170.854 101.633 170.854 101.633H159.164Z" fill="#D7D7D7"/>
<path opacity="0.2" d="M159.164 101.633C159.164 101.633 158.71 126.503 159.068 136.65C159.445 147.201 163.132 181.745 163.132 181.745H168.766C168.766 181.745 168.97 147.813 169.22 137.453C169.492 126.158 170.854 101.633 170.854 101.633H159.164Z" fill="white"/>
<path d="M169.138 180.02C169.161 180.02 169.138 181.859 169.138 181.859H162.641L162.369 179.793L169.138 180.02Z" fill="#263238"/>
<path d="M188.233 180.156C188.26 180.156 188.537 181.859 188.537 181.859H181.841L181.251 179.907L188.233 180.156Z" fill="#263238"/>
<path d="M183.167 186.44C182.94 186.458 182.715 186.399 182.527 186.272C182.465 186.222 182.418 186.158 182.39 186.085C182.361 186.011 182.352 185.932 182.363 185.854C182.364 185.809 182.376 185.764 182.399 185.725C182.422 185.686 182.455 185.654 182.495 185.632C182.862 185.446 183.938 186.086 184.061 186.176C184.074 186.186 184.083 186.198 184.089 186.213C184.094 186.227 184.096 186.243 184.093 186.258C184.09 186.273 184.084 186.288 184.073 186.299C184.063 186.31 184.049 186.318 184.034 186.322C183.75 186.393 183.459 186.432 183.167 186.44ZM182.672 185.754C182.637 185.747 182.602 185.747 182.567 185.754C182.552 185.763 182.539 185.777 182.53 185.793C182.521 185.809 182.517 185.827 182.517 185.845C182.51 185.898 182.517 185.952 182.536 186.002C182.555 186.052 182.586 186.096 182.626 186.131C182.997 186.303 183.42 186.326 183.807 186.195C183.46 185.976 183.075 185.827 182.672 185.754Z" fill="#D7D7D7"/>
<path d="M184.016 186.326C184.004 186.33 183.991 186.33 183.979 186.326C183.634 186.14 182.971 185.418 183.04 185.041C183.051 184.984 183.082 184.932 183.128 184.895C183.173 184.857 183.23 184.837 183.289 184.837C183.349 184.828 183.41 184.832 183.468 184.85C183.526 184.867 183.58 184.897 183.625 184.937C184.011 185.25 184.079 186.213 184.079 186.254C184.079 186.268 184.075 186.281 184.069 186.294C184.063 186.307 184.054 186.318 184.043 186.326C184.034 186.328 184.025 186.328 184.016 186.326ZM183.344 184.964H183.33C183.226 184.964 183.217 185.023 183.212 185.046C183.171 185.264 183.593 185.813 183.938 186.072C183.915 185.694 183.777 185.331 183.543 185.032C183.514 185.007 183.48 184.989 183.443 184.979C183.407 184.969 183.368 184.967 183.33 184.973L183.344 184.964Z" fill="#D7D7D7"/>
<path d="M163.168 186.44C162.883 186.466 162.598 186.394 162.36 186.235C162.308 186.188 162.267 186.128 162.242 186.062C162.217 185.996 162.207 185.925 162.215 185.854C162.215 185.811 162.227 185.769 162.249 185.732C162.271 185.695 162.303 185.665 162.342 185.645C162.746 185.418 164.085 186.099 164.235 186.176C164.25 186.183 164.262 186.195 164.27 186.21C164.277 186.225 164.279 186.242 164.276 186.258C164.274 186.274 164.266 186.289 164.255 186.301C164.243 186.312 164.228 186.32 164.212 186.322C163.869 186.395 163.519 186.435 163.168 186.44ZM162.564 185.754C162.514 185.752 162.465 185.762 162.419 185.781C162.404 185.79 162.391 185.803 162.382 185.818C162.374 185.833 162.369 185.85 162.369 185.868C162.362 185.914 162.368 185.961 162.384 186.005C162.401 186.048 162.429 186.087 162.464 186.117C162.669 186.299 163.218 186.331 163.953 186.208C163.519 185.98 163.049 185.827 162.564 185.754Z" fill="#D7D7D7"/>
<path d="M164.198 186.326H164.167C163.763 186.145 162.968 185.418 163.032 185.05C163.032 184.964 163.109 184.851 163.322 184.833C163.403 184.821 163.485 184.826 163.564 184.849C163.642 184.872 163.714 184.911 163.776 184.964C164.198 185.314 164.285 186.208 164.289 186.249C164.291 186.262 164.289 186.276 164.284 186.288C164.278 186.3 164.269 186.31 164.257 186.317C164.24 186.327 164.219 186.331 164.198 186.326ZM163.386 184.964H163.354C163.213 184.964 163.204 185.032 163.2 185.055C163.163 185.277 163.704 185.845 164.108 186.09C164.068 185.709 163.91 185.35 163.654 185.064C163.576 185.006 163.482 184.974 163.386 184.973V184.964Z" fill="#D7D7D7"/>
</g>
<defs>
<filter id="filter0_d_2_12908" x="0" y="0" width="235" height="235" filterUnits="userSpaceOnUse" color-interpolation-filters="sRGB">
<feFlood flood-opacity="0" result="BackgroundImageFix"/>
<feColorMatrix in="SourceAlpha" type="matrix" values="0 0 0 0 0 0 0 0 0 0 0 0 0 0 0 0 0 0 127 0" result="hardAlpha"/>
<feOffset dy="4"/>
<feGaussianBlur stdDeviation="2"/>
<feComposite in2="hardAlpha" operator="out"/>
<feColorMatrix type="matrix" values="0 0 0 0 0 0 0 0 0 0 0 0 0 0 0 0 0 0 0.25 0"/>
<feBlend mode="normal" in2="BackgroundImageFix" result="effect1_dropShadow_2_12908"/>
<feBlend mode="normal" in="SourceGraphic" in2="effect1_dropShadow_2_12908" result="shape"/>
</filter>
</defs>
</svg>
